{
  "accessors": [
    {
      "bufferView": 2,
      "componentType": 5126,
      "count": 9616,
      "max": [
        3.470867395401001,
        6.26179313659668,
        3.098602294921875
      ],
      "min": [
        -3.4827566146850586,
        -5.733686447143555,
        -3.106182098388672
      ],
      "type": "VEC3"
    },
    {
      "bufferView": 2,
      "byteOffset": 115392,
      "componentType": 5126,
      "count": 9616,
      "max": [
        0.9999996423721313,
        0.9999971389770508,
        1.0
      ],
      "min": [
        -0.9999997615814209,
        -0.9999971389770508,
        -1.0
      ],
      "type": "VEC3"
    },
    {
      "bufferView": 1,
      "componentType": 5126,
      "count": 9616,
      "max": [
        1.0,
        1.0
      ],
      "min": [
        0.0,
        0.0
      ],
      "type": "VEC2"
    },
    {
      "bufferView": 0,
      "componentType": 5125,
      "count": 51351,
      "type": "SCALAR"
    },
    {
      "bufferView": 2,
      "byteOffset": 230784,
      "componentType": 5126,
      "count": 27736,
      "max": [
        3.3810300827026367,
        6.261795997619629,
        2.382542371749878
      ],
      "min": [
        -3.3929190635681152,
        -5.728429794311523,
        -2.390122413635254
      ],
      "type": "VEC3"
    },
    {
      "bufferView": 2,
      "byteOffset": 563616,
      "componentType": 5126,
      "count": 27736,
      "max": [
        0.9999996423721313,
        0.9999971389770508,
        1.0
      ],
      "min": [
        -0.9999997615814209,
        -0.9999971389770508,
        -1.0
      ],
      "type": "VEC3"
    },
    {
      "bufferView": 1,
      "byteOffset": 76928,
      "componentType": 5126,
      "count": 27736,
      "max": [
        1.0000001192092896,
        1.0
      ],
      "min": [
        -5.581496864692781e-08,
        0.01000000536441803
      ],
      "type": "VEC2"
    },
    {
      "bufferView": 0,
      "byteOffset": 205404,
      "componentType": 5125,
      "count": 55398,
      "type": "SCALAR"
    },
    {
      "bufferView": 2,
      "byteOffset": 896448,
      "componentType": 5126,
      "count": 778,
      "max": [
        3.555995225906372,
        4.962903022766113,
        3.1840198040008545
      ],
      "min": [
        -3.5678842067718506,
        -3.3510148525238037,
        -3.1915996074676514
      ],
      "type": "VEC3"
    },
    {
      "bufferView": 2,
      "byteOffset": 905784,
      "componentType": 5126,
      "count": 778,
      "max": [
        0.9918177127838135,
        0.9033017754554749,
        1.0
      ],
      "min": [
        -0.983470618724823,
        -0.9033017754554749,
        -1.0
      ],
      "type": "VEC3"
    },
    {
      "bufferView": 1,
      "byteOffset": 298816,
      "componentType": 5126,
      "count": 778,
      "max": [
        1.0,
        0.5833333134651184
      ],
      "min": [
        8.881784197001252e-16,
        0.03512450307607651
      ],
      "type": "VEC2"
    },
    {
      "bufferView": 0,
      "byteOffset": 426996,
      "componentType": 5125,
      "count": 3414,
      "type": "SCALAR"
    },
    {
      "bufferView": 2,
      "byteOffset": 915120,
      "componentType": 5126,
      "count": 32,
      "max": [
        3.2812952995300293,
        2.313706636428833,
        0.3017027676105499
      ],
      "min": [
        2.548488140106201,
        -3.6275084018707275,
        -0.3092816174030304
      ],
      "type": "VEC3"
    },
    {
      "bufferView": 2,
      "byteOffset": 915504,
      "componentType": 5126,
      "count": 32,
      "max": [
        0.751102089881897,
        0.7219030857086182,
        0.799984872341156
      ],
      "min": [
        -0.7517309784889221,
        -0.7211555242538452,
        -0.799984872341156
      ],
      "type": "VEC3"
    },
    {
      "bufferView": 1,
      "byteOffset": 305040,
      "componentType": 5126,
      "count": 32,
      "max": [
        0.7665338516235352,
        0.8159157037734985
      ],
      "min": [
        0.7334661483764648,
        0.1891854852437973
      ],
      "type": "VEC2"
    },
    {
      "bufferView": 0,
      "byteOffset": 440652,
      "componentType": 5125,
      "count": 168,
      "type": "SCALAR"
    },
    {
      "bufferView": 2,
      "byteOffset": 915888,
      "componentType": 5126,
      "count": 32,
      "max": [
        -2.583637237548828,
        2.4718847274780273,
        0.30170363187789917
      ],
      "min": [
        -3.314970016479492,
        -3.4694759845733643,
        -0.3092820942401886
      ],
      "type": "VEC3"
    },
    {
      "bufferView": 2,
      "byteOffset": 916272,
      "componentType": 5126,
      "count": 32,
      "max": [
        0.7516306638717651,
        0.7210958003997803,
        0.7999890446662903
      ],
      "min": [
        -0.7510452270507813,
        -0.7217836976051331,
        -0.7999890446662903
      ],
      "type": "VEC3"
    },
    {
      "bufferView": 1,
      "byteOffset": 305296,
      "componentType": 5126,
      "count": 32,
      "max": [
        0.26653382182121277,
        0.8159157037734985
      ],
      "min": [
        0.23346616327762604,
        0.1891855001449585
      ],
      "type": "VEC2"
    },
    {
      "bufferView": 0,
      "byteOffset": 441324,
      "componentType": 5125,
      "count": 168,
      "type": "SCALAR"
    },
    {
      "bufferView": 2,
      "byteOffset": 916656,
      "componentType": 5126,
      "count": 192,
      "max": [
        1.223108172416687,
        -5.399384498596191,
        1.3567568063735962
      ],
      "min": [
        -1.4973982572555542,
        -5.487873077392578,
        -1.36433744430542
      ],
      "type": "VEC3"
    },
    {
      "bufferView": 2,
      "byteOffset": 918960,
      "componentType": 5126,
      "count": 192,
      "max": [
        0.7461434006690979,
        0.7480539083480835,
        0.7278783321380615
      ],
      "min": [
        -0.7461434006690979,
        -0.7480539083480835,
        -0.7278783321380615
      ],
      "type": "VEC3"
    },
    {
      "bufferView": 1,
      "byteOffset": 305552,
      "componentType": 5126,
      "count": 192,
      "max": [
        0.4371533989906311,
        0.437153160572052
      ],
      "min": [
        0.06284655630588531,
        0.06284657120704651
      ],
      "type": "VEC2"
    },
    {
      "bufferView": 0,
      "byteOffset": 441996,
      "componentType": 5125,
      "count": 1140,
      "type": "SCALAR"
    },
    {
      "bufferView": 2,
      "byteOffset": 921264,
      "componentType": 5126,
      "count": 520,
      "max": [
        1.6307120323181152,
        6.260720729827881,
        1.5885655879974365
      ],
      "min": [
        -1.5945372581481934,
        -0.513408899307251,
        -1.596145510673523
      ],
      "type": "VEC3"
    },
    {
      "bufferView": 2,
      "byteOffset": 927504,
      "componentType": 5126,
      "count": 520,
      "max": [
        0.9999986886978149,
        0.9996360540390015,
        1.0
      ],
      "min": [
        -0.9999983310699463,
        -0.9996352195739746,
        -1.0
      ],
      "type": "VEC3"
    },
    {
      "bufferView": 1,
      "byteOffset": 307088,
      "componentType": 5126,
      "count": 520,
      "max": [
        0.78763347864151,
        0.4802199602127075
      ],
      "min": [
        0.019779909402132034,
        0.019779909402132034
      ],
      "type": "VEC2"
    },
    {
      "bufferView": 0,
      "byteOffset": 446556,
      "componentType": 5125,
      "count": 1884,
      "type": "SCALAR"
    },
    {
      "bufferView": 2,
      "byteOffset": 933744,
      "componentType": 5126,
      "count": 296,
      "max": [
        2.6905224323272705,
        5.682648181915283,
        2.3778514862060547
      ],
      "min": [
        -2.6928746700286865,
        -3.5598952770233154,
        -2.3854315280914307
      ],
      "type": "VEC3"
    },
    {
      "bufferView": 2,
      "byteOffset": 937296,
      "componentType": 5126,
      "count": 296,
      "max": [
        0.9931199550628662,
        0.9999971389770508,
        0.9913450479507446
      ],
      "min": [
        -0.9931199550628662,
        -0.9999971389770508,
        -0.9913421273231506
      ],
      "type": "VEC3"
    },
    {
      "bufferView": 1,
      "byteOffset": 311248,
      "componentType": 5126,
      "count": 296,
      "max": [
        1.0000001192092896,
        0.9032362699508667
      ],
      "min": [
        -5.581496864692781e-08,
        0.019779806956648827
      ],
      "type": "VEC2"
    },
    {
      "bufferView": 0,
      "byteOffset": 454092,
      "componentType": 5125,
      "count": 762,
      "type": "SCALAR"
    }
  ],
  "asset": {
    "extras": {
      "author": "D_Dingo (https://sketchfab.com/D_Dingo)",
      "license": "CC-BY-4.0 (http://creativecommons.org/licenses/by/4.0/)",
      "source": "https://sketchfab.com/3d-models/alcubierre-concept-a2cd0b6280474e5f9f5fea82a24e10f3",
      "title": "Alcubierre Concept"
    },
    "generator": "Sketchfab-13.4.0",
    "version": "2.0"
  },
  "bufferViews": [
    {
      "buffer": 0,
      "byteLength": 457140,
      "name": "floatBufferViews",
      "target": 34963
    },
    {
      "buffer": 0,
      "byteLength": 313616,
      "byteOffset": 457140,
      "byteStride": 8,
      "name": "floatBufferViews",
      "target": 34962
    },
    {
      "buffer": 0,
      "byteLength": 940848,
      "byteOffset": 770756,
      "byteStride": 12,
      "name": "floatBufferViews",
      "target": 34962
    }
  ],
  "buffers": [
    {
      "byteLength": 1711604,
      "uri": "scene.bin"
    }
  ],
  "materials": [
    {
      "doubleSided": true,
      "name": "Base_Mat",
      "pbrMetallicRoughness": {
        "baseColorFactor": [
          0.8,
          0.8,
          0.8,
          1.0
        ],
        "metallicFactor": 0.3366031929217157,
        "roughnessFactor": 0.69253994066458
      }
    },
    {
      "doubleSided": true,
      "name": "Black_Mat",
      "pbrMetallicRoughness": {
        "baseColorFactor": [
          0.00154767,
          0.00154767,
          0.00154767,
          1.0
        ],
        "metallicFactor": 0.0
      }
    },
    {
      "doubleSided": true,
      "name": "Panel_Mat",
      "pbrMetallicRoughness": {
        "baseColorFactor": [
          0.008100460000000007,
          0.00036790499999999834,
          0.0668053,
          1.0
        ],
        "roughnessFactor": 0.0
      }
    },
    {
      "doubleSided": true,
      "emissiveFactor": [
        0.016631259384727988,
        1.0,
        0.2503763932736913
      ],
      "name": "R.Winglight_Mat",
      "pbrMetallicRoughness": {
        "baseColorFactor": [
          0.0,
          0.723048,
          0.017429599999999962,
          1.0
        ],
        "metallicFactor": 0.0,
        "roughnessFactor": 0.8533793309547568
      }
    },
    {
      "doubleSided": true,
      "emissiveFactor": [
        1.0,
        0.01970499999999998,
        0.0
      ],
      "name": "L.Winglight_Mat",
      "pbrMetallicRoughness": {
        "baseColorFactor": [
          0.71056,
          0.0077562899999999955,
          0.0005943240000000028,
          1.0
        ],
        "metallicFactor": 0.0,
        "roughnessFactor": 0.955691199980312
      }
    },
    {
      "emissiveFactor": [
        0.047141199999999966,
        1.0,
        1.0
      ],
      "name": "Ion_Mat",
      "pbrMetallicRoughness": {
        "baseColorFactor": [
          0.0030101099999999977,
          0.9152819999999999,
          1.0,
          1.0
        ],
        "metallicFactor": 0.20837340514201447,
        "roughnessFactor": 0.31950783075999467
      }
    },
    {
      "doubleSided": true,
      "name": "Glass_Mat",
      "pbrMetallicRoughness": {
        "baseColorFactor": [
          0.7999999999999999,
          0.5983129999999999,
          0.000745994999999995,
          1.0
        ],
        "roughnessFactor": 0.0
      }
    },
    {
      "doubleSided": true,
      "emissiveFactor": [
        1.0,
        1.0,
        1.0
      ],
      "name": "Whitelight_Mat",
      "pbrMetallicRoughness": {
        "metallicFactor": 0.0,
        "roughnessFactor": 0.7763932022500211
      }
    }
  ],
  "meshes": [
    {
      "name": "Core_Base_Mat_0",
      "primitives": [
        {
          "attributes": {
            "NORMAL": 1,
            "POSITION": 0,
            "TEXCOORD_0": 2
          },
          "indices": 3,
          "material": 0,
          "mode": 4
        }
      ]
    },
    {
      "name": "Core_Black_Mat_0",
      "primitives": [
        {
          "attributes": {
            "NORMAL": 5,
            "POSITION": 4,
            "TEXCOORD_0": 6
          },
          "indices": 7,
          "material": 1,
          "mode": 4
        }
      ]
    },
    {
      "name": "Core_Panel_Mat_0",
      "primitives": [
        {
          "attributes": {
            "NORMAL": 9,
            "POSITION": 8,
            "TEXCOORD_0": 10
          },
          "indices": 11,
          "material": 2,
          "mode": 4
        }
      ]
    },
    {
      "name": "Core_R.Winglight_Mat_0",
      "primitives": [
        {
          "attributes": {
            "NORMAL": 13,
            "POSITION": 12,
            "TEXCOORD_0": 14
          },
          "indices": 15,
          "material": 3,
          "mode": 4
        }
      ]
    },
    {
      "name": "Core_L.Winglight_Mat_0",
      "primitives": [
        {
          "attributes": {
            "NORMAL": 17,
            "POSITION": 16,
            "TEXCOORD_0": 18
          },
          "indices": 19,
          "material": 4,
          "mode": 4
        }
      ]
    },
    {
      "name": "Core_Ion_Mat_0",
      "primitives": [
        {
          "attributes": {
            "NORMAL": 21,
            "POSITION": 20,
            "TEXCOORD_0": 22
          },
          "indices": 23,
          "material": 5,
          "mode": 4
        }
      ]
    },
    {
      "name": "Core_Glass_Mat_0",
      "primitives": [
        {
          "attributes": {
            "NORMAL": 25,
            "POSITION": 24,
            "TEXCOORD_0": 26
          },
          "indices": 27,
          "material": 6,
          "mode": 4
        }
      ]
    },
    {
      "name": "Core_Whitelight_Mat_0",
      "primitives": [
        {
          "attributes": {
            "NORMAL": 29,
            "POSITION": 28,
            "TEXCOORD_0": 30
          },
          "indices": 31,
          "material": 7,
          "mode": 4
        }
      ]
    }
  ],
  "nodes": [
    {
      "children": [
        1
      ],
      "matrix": [
        1.0,
        0.0,
        0.0,
        0.0,
        0.0,
        2.220446049250313e-16,
        -1.0,
        0.0,
        0.0,
        1.0,
        2.220446049250313e-16,
        0.0,
        0.0,
        0.0,
        0.0,
        1.0
      ],
      "name": "Sketchfab_model"
    },
    {
      "children": [
        2
      ],
      "matrix": [
        0.009999999776482582,
        0.0,
        0.0,
        0.0,
        0.0,
        0.0,
        0.009999999776482582,
        0.0,
        0.0,
        -0.009999999776482582,
        0.0,
        0.0,
        0.0,
        0.0,
        0.0,
        1.0
      ],
      "name": "4bff82debd514ae7b1d2145bf729ead4.fbx"
    },
    {
      "children": [
        3
      ],
      "name": "RootNode"
    },
    {
      "children": [
        4,
        5,
        6,
        7,
        8,
        9,
        10,
        11
      ],
      "matrix": [
        100.0,
        0.0,
        0.0,
        0.0,
        -0.0,
        -1.629206793918314e-05,
        -99.99999999999868,
        0.0,
        0.0,
        99.99999999999868,
        -1.629206793918314e-05,
        0.0,
        -8.002401351928711,
        0.37897518277168274,
        1107.8658447265625,
        1.0
      ],
      "name": "Core"
    },
    {
      "mesh": 0,
      "name": "Core_Base_Mat_0"
    },
    {
      "mesh": 1,
      "name": "Core_Black_Mat_0"
    },
    {
      "mesh": 2,
      "name": "Core_Panel_Mat_0"
    },
    {
      "mesh": 3,
      "name": "Core_R.Winglight_Mat_0"
    },
    {
      "mesh": 4,
      "name": "Core_L.Winglight_Mat_0"
    },
    {
      "mesh": 5,
      "name": "Core_Ion_Mat_0"
    },
    {
      "mesh": 6,
      "name": "Core_Glass_Mat_0"
    },
    {
      "mesh": 7,
      "name": "Core_Whitelight_Mat_0"
    }
  ],
  "scene": 0,
  "scenes": [
    {
      "name": "Sketchfab_Scene",
      "nodes": [
        0
      ]
    }
  ]
}
